<?xml version="1.0" encoding="UTF-8" standalone="no"?>
<svg
   id="parkrunUK-ColourRGB"
   viewBox="0 0 212 107"
   version="1.1"
   width="212"
   height="107"
   xmlns="http://www.w3.org/2000/svg"
   xmlns:svg="http://www.w3.org/2000/svg">
  <defs
     id="defs134">
    <style
       id="style132">
      .cls-1 {
        fill: #241f3d;
      }

      .cls-1, .cls-2, .cls-3 {
        stroke-width: 0px;
      }

      .cls-2 {
        fill: #f41c5e;
      }

      .cls-3 {
        fill: #fff;
      }
    </style>
  </defs>
  <g
     id="parkrun_UK_RGB"
     data-name="parkrun UK RGB"
     transform="translate(-32.14,-25.740002)">
    <path
       id="parkrun_UK_RGB-2"
       data-name="parkrun UK RGB"
       class="cls-1"
       d="m 148.57,90.62 c 0,-1.12 -0.9,-2.03 -2,-2.03 -7.11,0 -11.41,2.53 -14.02,5.59 V 66.22 c 0,-1.12 -0.9,-2.03 -2,-2.03 -1.1,0 -2,0.91 -2,2.03 v 52.86 c 0,1.12 0.9,2.03 2,2.03 1.1,0 2,-0.91 2,-2.03 v -14.23 c 0,-12.2 14.02,-12.2 14.02,-12.2 1.1,0 2,-0.91 2,-2.03 z m -26.03,-2.03 c -1.82,0 -3.45,0.17 -4.92,0.46 -8.92,-0.31 -16.04,-7.72 -16.06,-16.84 0,-9.18 7.23,-16.63 16.22,-16.84 l 2.25,-0.05 -0.5,-2.24 c -0.22,-0.98 -0.34,-1.98 -0.34,-3.01 0.01,-7.5 5.99,-13.57 13.38,-13.58 7.38,0.01 13.36,6.08 13.37,13.58 0,0.74 -0.13,2.19 -0.13,2.19 0.06,0.98 0.85,1.75 1.82,1.75 0.97,0 1.71,-0.72 1.81,-1.65 0,0 0.18,-1.51 0.18,-2.29 0,-4.77 -1.9,-9.1 -4.98,-12.23 -3.09,-3.15 -7.36,-5.09 -12.08,-5.1 -9.43,0 -17.07,7.76 -17.07,17.33 0,0.58 0.03,1.15 0.08,1.72 -9.99,1.28 -17.72,9.93 -17.72,20.42 0,8.96 5.63,16.57 13.49,19.41 -6.84,4.71 -6.84,13.23 -6.84,13.23 v 14.23 c 0,1.12 0.9,2.03 2,2.03 1.1,0 2,-0.91 2,-2.03 v -14.23 c 0,-12.2 14.01,-12.2 14.01,-12.2 1.11,0 2,-0.91 2,-2.03 0,-1.12 -0.9,-2.03 -2,-2.03 z m -36.9,0 c -16.02,0 -16.02,16.26 -16.02,16.26 0,0 0,16.26 16.02,16.26 4.52,0 7.76,-1.3 10.09,-3.16 l 2.47,2.53 c 0,0 0.05,0.05 0.08,0.08 l 0.06,0.06 v 0 c 0.35,0.31 0.81,0.5 1.31,0.5 1.1,0 2,-0.91 2,-2.03 0,-0.55 -0.21,-1.04 -0.56,-1.4 v 0 c 0,0 -2.56,-2.79 -2.56,-2.79 h -5.81 c -3.32,2.15 -7.09,2.16 -7.09,2.16 0,0 -12.01,0 -12.01,-12.2 0,-12.2 12.01,-12.2 12.01,-12.2 0,0 12.01,0 12.01,12.2 v 6.1 c 0,1.12 0.9,2.03 2,2.03 1.1,0 2,-0.91 2,-2.03 v -6.1 c 0,0 0,-16.26 -16.02,-16.26 z m -34.81,0 c -16.02,0 -16.02,16.26 -16.02,16.26 v 18.97 l -2.32,5.73 c -0.22,0.33 -0.35,0.72 -0.35,1.15 0,1.12 0.9,2.03 2,2.03 0.72,0 1.35,-0.39 1.7,-0.98 v 0 c 0,0 0.02,-0.04 0.02,-0.04 0.09,-0.15 0.15,-0.31 0.2,-0.48 l 2.55,-6.25 c 0.13,-0.27 0.21,-0.57 0.21,-0.88 v -19.26 c 0,-12.2 12.01,-12.2 12.01,-12.2 0,0 12.01,0 12.01,12.2 0,12.2 -12.01,12.2 -12.01,12.2 h -7.42 c -1.1,0 -1.99,0.91 -1.99,2.03 0,1.12 0.9,2.03 2,2.03 0.02,0 0.04,0 0.05,0 v 0 c 0,0 7.35,0 7.35,0 16.02,0 16.02,-16.26 16.02,-16.26 0,0 0,-16.26 -16.02,-16.26 z m 177.17,0 c -4.52,0 -7.76,1.3 -10.09,3.16 l -2.48,-2.53 c 0,0 -0.05,-0.05 -0.08,-0.08 l -0.06,-0.06 v 0 c -0.35,-0.31 -0.81,-0.5 -1.31,-0.5 -1.1,0 -2,0.91 -2,2.03 0,0.54 0.22,1.04 0.56,1.4 v 0 c 0,0 2.56,2.79 2.56,2.79 h 5.81 c 3.32,-2.15 7.09,-2.16 7.09,-2.16 0,0 12.01,0 12.01,12.2 v 14.23 c 0,1.12 0.9,2.03 2,2.03 1.1,0 2,-0.91 2,-2.03 v -14.23 c 0,0 0,-16.26 -16.02,-16.26 z m -22.03,0 c -1.11,0 -2,0.91 -2,2.03 v 20.33 c 0,1.12 0.89,2.03 2,2.03 1.11,0 2,-0.91 2,-2.03 V 90.62 c 0,-1.12 -0.9,-2.03 -2,-2.03 z m 8.01,8.13 c -1.1,0 -2,0.91 -2,2.03 v 20.33 c 0,1.12 0.9,2.03 2,2.03 1.1,0 2,-0.91 2,-2.03 V 98.75 c 0,-1.12 -0.9,-2.03 -2,-2.03 z m -6.56,20.96 -2.56,-2.78 h -5.81 c -3.32,2.15 -7.1,2.16 -7.1,2.16 0,0 -12.01,0 -12.01,-12.2 V 90.63 c 0,-1.12 -0.9,-2.03 -2,-2.03 -1.1,0 -2,0.91 -2,2.03 v 14.23 c 0,0 0,16.26 16.02,16.26 4.53,0 7.76,-1.3 10.09,-3.16 l 2.47,2.53 c 0,0 0.05,0.05 0.08,0.08 l 0.06,0.06 v 0 c 0.35,0.31 0.81,0.5 1.31,0.5 1.11,0 2,-0.91 2,-2.03 0,-0.55 -0.21,-1.04 -0.56,-1.4 v 0 z M 170.59,88.59 c -18.02,0 -18.02,16.26 -18.02,16.26 v 9.59 l -12.35,-12.75 c -0.14,-0.21 -0.31,-0.39 -0.51,-0.53 v 0 c -0.32,-0.24 -0.72,-0.37 -1.14,-0.37 -1.1,0 -2,0.91 -2,2.03 0,0.52 0.19,0.98 0.5,1.34 v 0 c 0,0 0.04,0.05 0.04,0.05 0.03,0.03 0.06,0.06 0.09,0.09 l 15.7,15.87 c 0.16,0.26 0.38,0.47 0.63,0.64 v 0 c 0,0 0,0 0,0 0.31,0.19 0.66,0.31 1.05,0.31 1.11,0 2,-0.91 2,-2.03 v -14.23 c 0,-12.2 14.02,-12.2 14.02,-12.2 1.1,0 2,-0.91 2,-2.03 0,-1.12 -0.9,-2.03 -2,-2.03 z" />
    <g
       id="Official_Vitality_RGB"
       data-name="Official Vitality RGB">
      <circle
         class="cls-2"
         cx="181.63"
         cy="50.240002"
         r="24.5"
         id="circle137" />
      <path
         class="cls-3"
         d="m 169.71,49.99 c 0,-0.86 -0.72,-1.46 -1.26,-1.54 -1.8,2.04 -1.98,5.36 -2.09,6.48 -0.06,1.32 1.26,1.36 1.26,1.36 1.52,-0.38 1.32,-1.55 1.32,-1.55 0,0 -0.15,-0.1 -0.15,-0.41 0,-0.31 0.93,-4.04 0.93,-4.35 v 0 z"
         id="path139" />
      <path
         class="cls-3"
         d="m 189.9,48.56 c 0.32,0 1.02,-0.54 1.02,-0.99 0,-0.2 -0.76,-1.85 -1.8,-1.85 -0.3,0 -0.72,0.37 -0.72,0.68 0,0.51 0.44,2.16 1.5,2.16 z"
         id="path141" />
      <path
         class="cls-3"
         d="m 170.14,47.39 c 0.32,0 0.9,-0.21 0.9,-0.66 0,-0.2 -0.82,-2.16 -1.85,-2.16 -0.3,0 -0.72,0.37 -0.72,0.68 0,0.51 0.12,2.14 1.68,2.14 v 0 z"
         id="path143" />
      <path
         class="cls-3"
         d="m 173.34,38.38 c -0.42,-0.48 -5.88,-1.1 -10.59,13.73 -0.03,0.1 -0.18,0.09 -0.2,-0.01 -0.74,-3.93 -0.41,-8.4 -0.51,-9.11 -0.23,-1.78 -1.75,-1.21 -1.75,-1.21 -0.68,1.42 -0.24,12.87 0.89,14.36 0.68,0.29 2.63,0.19 3.04,-0.27 0,0 2.73,-14.48 9.11,-17.48 v 0 z"
         id="path145" />
      <path
         class="cls-3"
         d="m 202.6,48.97 c -0.14,0 -0.22,0.18 -0.22,0.18 -1.65,2.97 -3.14,5.35 -4.41,5.45 -0.27,0.02 -0.42,-0.13 -0.48,-0.42 v 0 c -0.15,-1.15 0.92,-3.97 0.84,-4.78 -0.03,-0.3 -0.18,-0.27 -0.37,-0.39 -0.06,0.05 -0.13,0.12 -0.2,0.21 -0.03,0.04 -0.08,0.05 -0.12,0.03 -0.76,-0.28 -1.71,-0.47 -2.28,-0.55 0.58,-1.65 1.81,-5.09 1.81,-5.4 0,-0.77 -0.56,-1.03 -1.52,-1.29 -1.54,2.71 -2.52,6.42 -2.59,6.69 -0.5,0.45 -1.25,0.04 -1.4,0.92 0.38,0.39 1.07,0.72 1.07,1.03 0,0.31 -0.52,1.55 -0.32,5.65 0.27,0.1 1.38,-1.08 1.41,-1.43 0.31,-3.18 1.11,-4.32 1.11,-4.32 0,0 1.26,0.04 2.02,-0.11 0.02,0 0.04,0.02 0.03,0.04 -0.18,0.36 -1.26,2.59 -1.27,3.62 -0.01,1.34 0.42,2.09 1.54,2.19 0.22,0.02 0.46,0.03 0.71,0 1.04,-0.14 2.28,-0.68 3.31,-1.89 0.07,-0.08 0.19,-0.01 0.16,0.08 -1.63,5.82 -4.78,7.28 -6.11,7.59 0.05,0.41 2.34,0.29 3.94,-1.07 1.86,-1.57 3.22,-3.96 3.78,-5.85 0.18,-0.59 0.35,-1.21 0.47,-1.84 0.23,-1.12 0.37,-2.29 0.39,-3.46 0,-0.19 -1.07,-0.9 -1.3,-0.9 z"
         id="path147" />
      <path
         class="cls-3"
         d="m 191.69,55.5 h -0.06 c -1.71,0 0.3,-6.02 -2.11,-5.7 -0.41,0.05 -1.03,0.38 -1.23,0.49 -0.04,0.02 -0.08,0.06 -0.1,0.1 -0.21,0.35 -1.24,2.03 -2.99,3.89 -0.15,0.15 -0.4,0.1 -0.46,-0.1 -0.88,-2.83 2.99,-11.15 3.04,-11.33 0.29,-0.93 -0.99,-1.38 -1.63,-1.45 -1.4,1.98 -3.75,8.26 -3.51,13.25 0,0.07 -0.04,0.12 -0.09,0.15 -0.39,0.16 -1.82,0.69 -1.65,-0.49 0.04,-0.3 0.72,-2.1 0.72,-2.41 0,-0.2 -0.86,-1.36 -1.5,-1.36 -0.26,0 -2.69,3.06 -3.5,3.78 -0.14,0.12 -0.36,0.07 -0.43,-0.1 -0.44,-0.97 0.63,-3.63 3.67,-4.64 0.03,-0.01 0.67,-0.61 0.78,-0.77 0.05,-0.07 0.06,-0.16 0.04,-0.24 -0.04,-0.14 -0.22,-0.24 -0.23,-0.24 v 0 c -1.69,-0.78 -5.45,-0.67 -6.09,-0.76 0.47,-2.15 1.95,-5.6 1.99,-5.94 0.06,-0.52 -0.44,-1.02 -1.49,-1.31 -1.69,2.97 -3.08,6.91 -3.16,7.22 -0.28,0.29 -0.7,0.18 -0.96,1 0,0.38 0.61,0.79 0.61,1.13 0,0.34 -0.58,2.14 -0.35,6.62 0.83,0.05 1.73,-1.27 1.79,-1.65 0.53,-3.45 1.05,-5.05 1.05,-5.05 1.31,0 2.42,-0.09 3.33,-0.22 0.03,0 0.05,0.04 0.02,0.05 -1.61,1.37 -3.15,2.69 -3.11,5.24 0.01,1.03 1.11,1.62 1.74,1.62 1.09,0 2.2,-0.97 2.73,-1.57 0.1,-0.11 0.29,-0.06 0.31,0.08 0.16,0.98 0.98,1.48 1.76,1.48 0.72,0 1.8,-0.69 2.2,-0.91 0.04,-0.02 0.08,-0.01 0.1,0.02 0.27,0.31 0.82,0.89 1.35,0.89 1.57,0 3.16,-2.28 4.04,-3.69 0.08,-0.12 0.27,-0.09 0.3,0.05 0.34,1.51 0.33,3.64 1.85,3.64 0.41,0 0.93,-0.11 1.38,-0.27 0.32,-0.11 0.21,-0.56 -0.13,-0.53 l -0.02,0.02 z"
         id="path149" />
    </g>
    <g
       id="g168">
      <path
         class="cls-1"
         d="m 195.88,79.92 c -0.48,0 -0.95,-0.21 -1.2,-0.56 h -0.02 v 2.38 h -1.3 v -5.95 h 1.24 v 0.49 h 0.02 c 0.24,-0.32 0.68,-0.6 1.26,-0.6 1.15,0 1.87,0.98 1.87,2.1 0,1.12 -0.69,2.13 -1.88,2.13 z m -0.31,-3.16 c -0.59,0 -0.95,0.52 -0.95,1.03 0,0.51 0.36,1.03 0.95,1.03 0.62,0 0.93,-0.52 0.93,-1.04 0,-0.52 -0.31,-1.02 -0.93,-1.02 z"
         id="path152" />
      <path
         class="cls-1"
         d="m 198.37,76.34 c 0.46,-0.44 1.12,-0.68 1.76,-0.68 1.33,0 1.82,0.66 1.82,2.12 v 2.02 h -1.19 v -0.43 h -0.02 c -0.2,0.33 -0.65,0.52 -1.12,0.52 -0.63,0 -1.44,-0.31 -1.44,-1.26 0,-1.16 1.39,-1.35 2.54,-1.35 v -0.06 c 0,-0.39 -0.31,-0.58 -0.71,-0.58 -0.37,0 -0.74,0.19 -0.98,0.41 l -0.66,-0.72 z m 2.38,1.72 h -0.17 c -0.57,0 -1.22,0.07 -1.22,0.55 0,0.31 0.3,0.41 0.56,0.41 0.52,0 0.82,-0.32 0.82,-0.82 v -0.14 z"
         id="path154" />
      <path
         class="cls-1"
         d="m 205.16,76.87 c -0.12,-0.03 -0.23,-0.04 -0.33,-0.04 -0.7,0 -0.93,0.58 -0.93,0.91 v 2.06 h -1.3 v -4.01 h 1.25 v 0.58 h 0.01 c 0.2,-0.4 0.59,-0.69 1.07,-0.69 0.1,0 0.21,0 0.28,0.03 l -0.06,1.16 z"
         id="path156" />
      <path
         class="cls-1"
         d="m 207.37,76.78 v 1.53 c 0,0.37 0.12,0.56 0.49,0.56 0.13,0 0.29,-0.02 0.38,-0.06 v 0.97 c -0.16,0.06 -0.46,0.12 -0.74,0.12 -1.06,0 -1.4,-0.57 -1.4,-1.43 v -1.69 h -0.63 v -0.99 h 0.63 v -1.05 h 1.28 v 1.05 h 0.93 v 0.99 h -0.93 z"
         id="path158" />
      <path
         class="cls-1"
         d="m 211.35,79.81 v -2.19 c 0,-0.44 -0.12,-0.85 -0.59,-0.85 -0.47,0 -0.7,0.4 -0.7,0.86 v 2.17 h -1.31 v -4.01 h 1.26 v 0.56 h 0.02 c 0.18,-0.35 0.63,-0.67 1.18,-0.67 1.06,0 1.44,0.84 1.44,1.64 v 2.48 h -1.31 z"
         id="path160" />
      <path
         class="cls-1"
         d="m 217.23,78.16 h -2.86 c 0.04,0.44 0.48,0.76 0.94,0.76 0.41,0 0.7,-0.18 0.87,-0.42 l 0.9,0.58 c -0.37,0.55 -0.99,0.85 -1.79,0.85 -1.19,0 -2.17,-0.77 -2.17,-2.12 0,-1.35 0.94,-2.15 2.13,-2.15 1.19,0 1.98,0.81 1.98,2.18 0,0.1 0,0.22 0,0.31 z m -1.19,-0.82 c 0,-0.42 -0.26,-0.77 -0.78,-0.77 -0.52,0 -0.86,0.35 -0.9,0.77 h 1.67 z"
         id="path162" />
      <path
         class="cls-1"
         d="m 220.29,76.87 c -0.12,-0.03 -0.23,-0.04 -0.33,-0.04 -0.7,0 -0.93,0.58 -0.93,0.91 v 2.06 h -1.3 v -4.01 h 1.25 v 0.58 h 0.01 c 0.2,-0.4 0.59,-0.69 1.07,-0.69 0.1,0 0.21,0 0.28,0.03 l -0.06,1.16 z"
         id="path164" />
      <path
         class="cls-1"
         d="m 223.04,76.98 c -0.21,-0.2 -0.51,-0.36 -0.83,-0.36 -0.25,0 -0.49,0.09 -0.49,0.32 0,0.23 0.21,0.29 0.72,0.4 0.6,0.14 1.26,0.44 1.26,1.22 0,1.01 -0.88,1.37 -1.69,1.37 -0.64,0 -1.31,-0.22 -1.72,-0.62 l 0.73,-0.78 c 0.23,0.26 0.59,0.45 0.97,0.45 0.21,0 0.47,-0.09 0.47,-0.35 0,-0.26 -0.25,-0.33 -0.79,-0.46 -0.55,-0.13 -1.15,-0.41 -1.15,-1.17 0,-0.96 0.89,-1.35 1.64,-1.35 0.59,0 1.2,0.19 1.59,0.56 l -0.71,0.75 z"
         id="path166" />
    </g>
  </g>
</svg>
